# xmcd CD database file
#
# Track frame offsets:
#	150
#	11441
#	23491
#	35643
#	49299
#	64235
#	78073
#	96384
#	105899
#	128420
#
# Disc length: 1979 seconds
#
# Revision: 0
# Processed by: cddbd v1.5.2PL0 Copyright (c) Steve Scherf et al.
# Submitted via: CDex 1.70beta2
#
DISCID=6d07b90a
DTITLE=Bob and Lisa - Rosethorns
DYEAR=2009
DGENRE=Blues
TTITLE0=Crossfire Blues
TTITLE1=Endings and Beginnings
TTITLE2=Walking on the Rain
TTITLE3=Jackie
TTITLE4=90 Miles
TTITLE5=Every single day
TTITLE6=I think of you
TTITLE7=Wishing Moon
TTITLE8=Weddig Bells
TTITLE9=Ride
EXTD=YEAR: 2009
EXTT0=
EXTT1=
EXTT2=
EXTT3=
EXTT4=
EXTT5=
EXTT6=
EXTT7=
EXTT8=
EXTT9=
PLAYORDER=
